<svg xmlns="http://www.w3.org/2000/svg" viewBox="0 0 1600 520" role="img" aria-label="Orange neural star network on dark background">
  <defs>
    <radialGradient id="glow" cx="50%" cy="50%" r="50%">
      <stop offset="0" stop-color="#fff3c4"/>
      <stop offset=".2" stop-color="#ffb21e"/>
      <stop offset=".55" stop-color="#ff5a1f" stop-opacity=".5"/>
      <stop offset="1" stop-color="#ff5a1f" stop-opacity="0"/>
    </radialGradient>
    <linearGradient id="line" x1="0" y1="1" x2="1" y2="0">
      <stop offset="0" stop-color="#ff5a1f" stop-opacity=".05"/>
      <stop offset=".45" stop-color="#ff7a1a" stop-opacity=".82"/>
      <stop offset="1" stop-color="#ff5a1f" stop-opacity=".3"/>
    </linearGradient>
    <pattern id="dots" width="18" height="18" patternUnits="userSpaceOnUse">
      <circle cx="2" cy="2" r="1.4" fill="#ff5a1f" opacity=".38"/>
    </pattern>
    <filter id="soft">
      <feGaussianBlur stdDeviation="5"/>
    </filter>
  </defs>
  <rect width="1600" height="520" fill="#050505"/>
  <rect x="500" y="120" width="1100" height="360" fill="url(#dots)" opacity=".55" transform="skewY(-9)"/>
  <path d="M410 430 C620 220 850 160 1090 210 S1390 180 1600 90" fill="none" stroke="#ff5a1f" stroke-width="5" opacity=".07" filter="url(#soft)"/>
  <path d="M430 390 C640 270 830 250 1010 295 S1310 205 1600 188" fill="none" stroke="#ff5a1f" stroke-width="4" opacity=".12"/>
  <g fill="none" stroke="url(#line)" stroke-linecap="round">
    <path d="M450 430 L640 365 L830 205 L885 322 L938 250 L1035 420 L1228 238 L1270 334 L1435 70 L1515 135 L1575 72"/>
    <path d="M640 365 L860 352 L1035 420 L1200 315 L1435 70"/>
    <path d="M450 430 L680 250 L860 352 L938 250 L1110 185 L1228 238 L1435 70"/>
    <path d="M680 250 L830 205 L938 250 L1035 420"/>
    <path d="M885 322 L1200 315 L1270 334 L1515 135"/>
    <path d="M1110 185 L1200 315 L1270 334 L1435 70 L1575 72"/>
  </g>
  <g fill="none" stroke="#ff5a1f" stroke-opacity=".24">
    <path d="M390 500 C620 420 790 480 1030 420 S1320 300 1600 260"/>
    <path d="M700 500 C840 410 980 390 1125 420 S1390 340 1600 320"/>
    <path d="M520 485 C730 350 955 345 1160 250 S1390 130 1600 80"/>
  </g>
  <g fill="#ff5a1f">
    <circle cx="450" cy="430" r="8"/>
    <circle cx="640" cy="365" r="7"/>
    <circle cx="680" cy="250" r="6"/>
    <circle cx="830" cy="205" r="8"/>
    <circle cx="860" cy="352" r="5"/>
    <circle cx="885" cy="322" r="6"/>
    <circle cx="938" cy="250" r="6"/>
    <circle cx="1035" cy="420" r="8"/>
    <circle cx="1110" cy="185" r="6"/>
    <circle cx="1200" cy="315" r="9"/>
    <circle cx="1228" cy="238" r="4"/>
    <circle cx="1270" cy="334" r="5"/>
    <circle cx="1435" cy="70" r="8"/>
    <circle cx="1515" cy="135" r="5"/>
    <circle cx="1575" cy="72" r="4"/>
  </g>
  <g>
    <circle cx="450" cy="430" r="34" fill="url(#glow)"/>
    <circle cx="830" cy="205" r="28" fill="url(#glow)"/>
    <circle cx="1035" cy="420" r="36" fill="url(#glow)"/>
    <circle cx="1200" cy="315" r="44" fill="url(#glow)"/>
    <circle cx="1435" cy="70" r="38" fill="url(#glow)"/>
  </g>
</svg>
