<svg xmlns="http://www.w3.org/2000/svg" viewBox="0 0 160 190" fill="none">
  <defs>
    <linearGradient id="dropBase" x1="34" y1="18" x2="126" y2="178" gradientUnits="userSpaceOnUse">
      <stop offset="0" stop-color="#e9d5ff"/>
      <stop offset="0.38" stop-color="#a855f7"/>
      <stop offset="1" stop-color="#6d28d9"/>
    </linearGradient>
    <linearGradient id="dropGlow" x1="66" y1="26" x2="116" y2="118" gradientUnits="userSpaceOnUse">
      <stop offset="0" stop-color="#f5f3ff"/>
      <stop offset="1" stop-color="#c084fc"/>
    </linearGradient>
    <linearGradient id="dropShadow" x1="48" y1="56" x2="116" y2="158" gradientUnits="userSpaceOnUse">
      <stop offset="0" stop-color="#2e1065" stop-opacity="0"/>
      <stop offset="1" stop-color="#2e1065" stop-opacity=".48"/>
    </linearGradient>
  </defs>
  <path d="M82 8C94 38 138 72 138 123C138 160 112 184 80 184C48 184 22 160 22 123C22 74 63 42 82 8Z" fill="url(#dropBase)"/>
  <path d="M87 20C98 42 126 69 126 102C126 134 105 159 76 170C97 155 111 135 111 108C111 80 98 57 87 20Z" fill="url(#dropGlow)" opacity=".7"/>
  <path d="M84 18C77 31 63 43 52 49C66 47 81 43 97 33C97 25 92 19 84 18Z" fill="#a855f7"/>
  <path d="M51 67C70 60 87 46 99 25C90 57 80 79 67 93C58 103 47 112 35 120C37 98 42 80 51 67Z" fill="#faf5ff"/>
  <path d="M47 53C61 53 79 49 97 40C99 47 100 54 100 61C81 70 62 75 43 76C43 67 44 59 47 53Z" fill="#6d28d9" opacity=".7"/>
  <path d="M41 118C54 105 66 91 77 74C85 62 93 46 98 28C96 67 88 95 76 121C68 137 56 150 40 160C40 144 40 131 41 118Z" fill="url(#dropShadow)"/>
</svg>

